<svg xmlns="http://www.w3.org/2000/svg" viewBox="0 0 720 450" role="img" aria-labelledby="title desc">
  <title id="title">드래그로 화면 영역을 선택하는 모습</title>
  <desc id="desc">어두워진 화면 위에서 필요한 부분만 드래그해 선택하는 화면</desc>
  <rect width="720" height="450" rx="24" fill="#253735"/>
  <rect x="42" y="42" width="636" height="366" rx="14" fill="#3e5351"/>
  <rect x="42" y="42" width="636" height="36" rx="14" fill="#f5f8f7"/>
  <path d="M42 63h636v15H42z" fill="#f5f8f7"/>
  <circle cx="68" cy="60" r="5" fill="#fd766e"/><circle cx="85" cy="60" r="5" fill="#f7bd37"/><circle cx="102" cy="60" r="5" fill="#44c66b"/>
  <g opacity=".82">
    <rect x="82" y="108" width="192" height="16" rx="8" fill="#90aaa5"/>
    <rect x="82" y="138" width="118" height="12" rx="6" fill="#79918c"/>
    <rect x="82" y="161" width="148" height="12" rx="6" fill="#79918c"/>
    <rect x="82" y="218" width="168" height="112" rx="10" fill="#53736d"/>
    <rect x="288" y="108" width="304" height="210" rx="12" fill="#708b85"/>
    <rect x="312" y="134" width="194" height="13" rx="6" fill="#a6bbb7"/>
    <rect x="312" y="163" width="240" height="12" rx="6" fill="#92aaa5"/>
    <rect x="312" y="187" width="178" height="12" rx="6" fill="#92aaa5"/>
  </g>
  <rect x="42" y="78" width="636" height="330" rx="0" fill="#07110f" opacity=".5"/>
  <rect x="236" y="135" width="286" height="174" rx="3" fill="#8fc8ba" opacity=".3"/>
  <rect x="236" y="135" width="286" height="174" fill="none" stroke="#dffcf6" stroke-width="2"/>
  <g transform="translate(236 105)">
    <rect width="113" height="22" rx="6" fill="#101d1b" opacity=".92"/>
    <text x="56.5" y="15" text-anchor="middle" font-family="ui-monospace, monospace" font-size="11" font-weight="700" fill="#ffffff">1180 × 720</text>
  </g>
  <g transform="translate(522 309)">
    <path d="M0 0l16 6-8 5 4 9-5 2-4-9-7 5z" fill="#ffffff" stroke="#10201d" stroke-width="2" stroke-linejoin="round"/>
    <path d="M16 6h28m-22-8v31" stroke="#ffffff" stroke-width="2" stroke-linecap="round"/>
    <text x="48" y="5" font-family="ui-monospace, monospace" font-size="12" font-weight="700" fill="#ffffff">1180</text>
    <text x="48" y="22" font-family="ui-monospace, monospace" font-size="12" font-weight="700" fill="#ffffff">720</text>
  </g>
</svg>
