<svg xmlns="http://www.w3.org/2000/svg" viewBox="0 0 720 450" role="img" aria-labelledby="title desc">
  <title id="title">메뉴바에서 K-Capture 캡처를 시작하는 화면</title>
  <desc id="desc">메뉴바의 K-Capture 아이콘을 누르고 캡처하기를 선택하는 모습</desc>
  <rect width="720" height="450" rx="24" fill="#dfece9"/>
  <rect x="42" y="46" width="636" height="358" rx="16" fill="#f8fbfa" stroke="#c6d9d5" stroke-width="2"/>
  <rect x="42" y="46" width="636" height="38" rx="16" fill="#ffffff"/>
  <path d="M42 68h636v16H42z" fill="#ffffff"/>
  <circle cx="69" cy="65" r="6" fill="#ff665e"/><circle cx="89" cy="65" r="6" fill="#febc2e"/><circle cx="109" cy="65" r="6" fill="#2bbd63"/>
  <rect x="147" y="104" width="256" height="236" rx="12" fill="#ffffff" stroke="#d5e4e0"/>
  <rect x="175" y="134" width="158" height="16" rx="8" fill="#c4dcd7"/>
  <rect x="175" y="164" width="120" height="12" rx="6" fill="#e0ebe8"/>
  <rect x="175" y="188" width="176" height="12" rx="6" fill="#e0ebe8"/>
  <rect x="175" y="237" width="88" height="37" rx="8" fill="#167d71"/>
  <text x="219" y="261" text-anchor="middle" font-family="-apple-system, BlinkMacSystemFont, sans-serif" font-size="13" font-weight="700" fill="#ffffff">프로젝트 열기</text>
  <rect x="429" y="104" width="190" height="218" rx="12" fill="#edf5f3"/>
  <rect x="452" y="132" width="144" height="14" rx="7" fill="#c6ddd8"/>
  <rect x="452" y="162" width="108" height="11" rx="5.5" fill="#d8e7e4"/>
  <rect x="452" y="184" width="126" height="11" rx="5.5" fill="#d8e7e4"/>
  <rect x="452" y="228" width="96" height="64" rx="8" fill="#beddd6"/>
  <rect x="509" y="54" width="40" height="22" rx="7" fill="#d7f3ed"/>
  <path d="M519 60v-3h3m8 3v-3h-3m-8 10v3h3m8-3v3h-3" fill="none" stroke="#087c72" stroke-width="2" stroke-linecap="round"/>
  <rect x="523" y="61" width="7" height="6" rx="1.5" fill="#087c72"/>
  <path d="M529 80c0 16 13 29 29 29" fill="none" stroke="#17ad9c" stroke-width="2.5" stroke-linecap="round" stroke-dasharray="5 6"/>
  <path d="M554 105l5 4-7 2" fill="#17ad9c"/>
  <g transform="translate(486 106)">
    <rect width="174" height="154" rx="13" fill="#ffffff" stroke="#b9d2cc" stroke-width="2"/>
    <text x="21" y="31" font-family="-apple-system, BlinkMacSystemFont, sans-serif" font-size="13" font-weight="700" fill="#4a5b57">K-Capture</text>
    <rect x="12" y="45" width="150" height="38" rx="8" fill="#14b8a6"/>
    <text x="28" y="69" font-family="-apple-system, BlinkMacSystemFont, sans-serif" font-size="14" font-weight="700" fill="#05231e">캡처하기</text>
    <text x="144" y="69" text-anchor="end" font-family="ui-monospace, monospace" font-size="11" font-weight="700" fill="#0a5148">Shift Cmd 2</text>
    <text x="27" y="111" font-family="-apple-system, BlinkMacSystemFont, sans-serif" font-size="13" fill="#536561">설정</text>
    <path d="M18 124h138" stroke="#e1ece9"/>
    <text x="27" y="145" font-family="-apple-system, BlinkMacSystemFont, sans-serif" font-size="13" fill="#536561">종료</text>
  </g>
</svg>
